<?xml version="1.0" standalone="no"?>
<!DOCTYPE svg PUBLIC "-//W3C//DTD SVG 20010904//EN"
 "http://www.w3.org/TR/2001/REC-SVG-20010904/DTD/svg10.dtd">
<svg version="1.0" xmlns="http://www.w3.org/2000/svg"
 width="256.000000pt" height="256.000000pt" viewBox="0 0 256.000000 256.000000"
 preserveAspectRatio="xMidYMid meet">
<metadata>
Created by potrace 1.11, written by Peter Selinger 2001-2013
</metadata>
<g transform="translate(0.000000,256.000000) scale(0.100000,-0.100000)"
fill="#000000" stroke="none">
<path d="M0 1280 l0 -1280 1280 0 1280 0 0 1280 0 1280 -1280 0 -1280 0 0
-1280z m1310 970 l0 -60 -30 0 -30 0 0 60 0 60 30 0 30 0 0 -60z m-277 -57
l29 -47 -24 -17 c-26 -20 -26 -21 -62 43 -25 44 -26 47 -9 57 30 17 37 13 66
-36z m557 32 c10 -12 7 -23 -14 -60 -27 -45 -39 -52 -65 -36 -12 8 -13 14 -2
38 32 71 56 89 81 58z m-253 -96 c79 -29 125 -117 103 -196 -12 -41 -75 -113
-100 -113 -6 0 -10 -17 -10 -38 0 -34 4 -39 43 -59 40 -21 56 -23 287 -25 227
-3 247 -4 272 -23 42 -32 60 -73 66 -145 l4 -66 69 -24 69 -23 0 -179 c0 -134
-3 -180 -12 -183 -7 -2 -38 -14 -69 -25 l-56 -20 -5 -65 c-10 -124 -59 -167
-200 -173 l-88 -4 0 -37 c0 -32 5 -38 40 -54 68 -32 146 -111 185 -189 19 -39
35 -76 35 -83 0 -7 14 -18 31 -25 16 -7 41 -27 54 -44 24 -32 47 -100 37 -110
-3 -3 -29 -6 -59 -6 -38 0 -53 4 -53 13 0 22 -37 49 -62 45 -13 -2 -28 -15
-36 -30 -12 -26 -18 -28 -68 -28 -62 0 -66 8 -35 76 17 37 40 61 85 89 14 9
14 15 -7 60 -23 48 -114 145 -137 145 -6 0 -10 -57 -10 -165 l0 -165 -425 0
-425 0 0 165 c0 91 -4 165 -8 165 -22 0 -91 -62 -119 -106 -48 -76 -49 -90
-13 -109 37 -19 78 -79 82 -120 3 -30 3 -30 -53 -33 -53 -3 -57 -1 -63 22 -4
16 -16 28 -31 32 -34 8 -54 -1 -65 -31 -9 -23 -15 -25 -65 -25 -46 0 -55 3
-55 18 0 35 45 107 83 132 28 19 45 41 61 82 42 103 113 181 214 232 27 14 32
22 32 51 l0 35 -78 0 c-61 0 -87 5 -122 23 -63 32 -82 62 -88 145 l-5 70 -74
27 -73 27 2 176 3 176 70 27 70 26 6 65 c6 77 31 124 79 149 31 17 60 19 270
19 225 0 237 1 278 22 37 20 42 27 42 58 0 30 -6 38 -39 57 -43 25 -81 90 -81
139 0 106 120 190 217 153z"/>
<path d="M1235 2025 c-28 -27 -32 -61 -10 -92 46 -66 150 -8 123 68 -9 26 -44
49 -74 49 -8 0 -26 -11 -39 -25z"/>
<path d="M684 1596 c-18 -14 -19 -31 -22 -346 -2 -288 -1 -336 13 -356 l15
-24 593 0 c448 0 596 3 605 12 9 9 12 103 12 360 0 333 -1 348 -19 358 -13 6
-219 10 -598 10 -484 0 -582 -2 -599 -14z m1084 -305 c-3 -207 -6 -216 -72
-265 -26 -20 -42 -21 -405 -24 l-377 -3 -34 23 c-19 13 -45 39 -57 57 -22 32
-23 43 -23 217 l0 184 486 0 485 0 -3 -189z"/>
<path d="M850 1284 c0 -100 4 -144 15 -168 29 -61 27 -61 405 -64 314 -2 348
-1 380 15 59 30 71 68 68 218 l-3 130 -432 3 -433 2 0 -136z m160 36 c0 -39 1
-40 35 -40 l35 0 0 -50 c0 -61 -24 -90 -74 -90 -51 0 -76 36 -76 110 0 63 26
110 61 110 16 0 19 -7 19 -40z m570 0 c0 -36 3 -40 25 -40 24 0 25 -3 25 -59
0 -51 -3 -62 -22 -75 -31 -22 -74 -20 -98 4 -16 16 -20 33 -20 95 0 84 18 115
65 115 23 0 25 -4 25 -40z"/>
<path d="M533 1358 c-22 -10 -23 -17 -23 -119 0 -97 2 -109 19 -119 39 -20 41
-14 41 120 0 72 -3 130 -7 129 -5 0 -18 -5 -30 -11z"/>
<path d="M2000 1240 c0 -132 3 -143 38 -122 9 6 12 38 10 122 -3 107 -4 113
-25 121 l-23 8 0 -129z"/>
<path d="M950 545 l0 -195 335 0 335 0 0 195 0 195 -335 0 -335 0 0 -195z
m435 0 l0 -100 -195 0 -195 0 -3 89 c-2 49 0 95 2 103 5 11 44 13 198 11 l193
-3 0 -100z m180 60 c52 -51 16 -145 -55 -145 -44 0 -80 39 -80 85 0 46 36 85
80 85 19 0 40 -9 55 -25z"/>
<path d="M1050 545 l0 -45 140 0 140 0 0 45 0 45 -140 0 -140 0 0 -45z"/>
<path d="M1484 555 c-4 -9 -2 -21 4 -27 16 -16 47 -5 47 17 0 26 -42 34 -51
10z"/>
</g>
</svg>
